<svg id="Layer_1" data-name="Layer 1" xmlns="http://www.w3.org/2000/svg" viewBox="0 0 185 152.13"><defs><style>.cls-1{fill:#fbfafd;}.cls-2{fill:#efeff0;}</style></defs><path class="cls-1" d="M274.3,197.58V349.71H89.3s20.64-38.35,66.79-44.25,79-33.29,89.34-56.89S274.3,197.58,274.3,197.58Z" transform="translate(-89.3 -197.58)"/><path class="cls-2" d="M173.67,327.79c1.92,0,3.48-1.84,3.48-4.11s-1.56-4.12-3.48-4.12-3.48,1.85-3.48,4.12S171.75,327.79,173.67,327.79Z" transform="translate(-89.3 -197.58)"/><path class="cls-2" d="M196.45,335.88c-.86-1.72-3.2-2.29-5.23-1.27s-3,3.23-2.13,4.95,3.21,2.29,5.24,1.27S197.31,337.6,196.45,335.88Z" transform="translate(-89.3 -197.58)"/><path class="cls-2" d="M183.51,327.83a4.71,4.71,0,1,0-3.36-5.23A4.41,4.41,0,0,0,183.51,327.83Z" transform="translate(-89.3 -197.58)"/><path class="cls-2" d="M187.47,331.75a4.71,4.71,0,1,0,1.2-6.1A4.4,4.4,0,0,0,187.47,331.75Z" transform="translate(-89.3 -197.58)"/><path class="cls-2" d="M172.46,330.6c-5.62,2.77-4.36,6.79-2.27,9s6,1.43,6,1.43.5,1.17,3.1,3.44a5.69,5.69,0,0,0,8.47-1.51c1.42-2.85-.84-9.06-2.26-11.91S178.08,327.84,172.46,330.6Z" transform="translate(-89.3 -197.58)"/><path class="cls-2" d="M177.77,276.49c1.92,0,3.48-1.84,3.48-4.12s-1.56-4.11-3.48-4.11-3.48,1.84-3.48,4.11S175.85,276.49,177.77,276.49Z" transform="translate(-89.3 -197.58)"/><path class="cls-2" d="M200.56,284.58c-.86-1.72-3.21-2.29-5.24-1.27s-3,3.23-2.12,4.94,3.2,2.29,5.23,1.28S201.41,286.3,200.56,284.58Z" transform="translate(-89.3 -197.58)"/><path class="cls-2" d="M187.62,276.53a4.7,4.7,0,1,0-3.37-5.23A4.42,4.42,0,0,0,187.62,276.53Z" transform="translate(-89.3 -197.58)"/><path class="cls-2" d="M191.57,280.45a4.71,4.71,0,1,0,1.2-6.1A4.42,4.42,0,0,0,191.57,280.45Z" transform="translate(-89.3 -197.58)"/><path class="cls-2" d="M176.56,279.3c-5.61,2.77-4.36,6.79-2.27,9s6.05,1.43,6.05,1.43.5,1.17,3.1,3.43,7,1.35,8.46-1.5-.83-9.06-2.26-11.91S182.18,276.54,176.56,279.3Z" transform="translate(-89.3 -197.58)"/><path class="cls-2" d="M241.61,282.52c1.84,0,3.34-1.88,3.34-4.2s-1.5-4.19-3.34-4.19-3.34,1.87-3.34,4.19S239.76,282.52,241.61,282.52Z" transform="translate(-89.3 -197.58)"/><path class="cls-2" d="M263.49,290.77a3.58,3.58,0,0,0-5-1.3,4,4,0,0,0-2,5,3.56,3.56,0,0,0,5,1.3A4,4,0,0,0,263.49,290.77Z" transform="translate(-89.3 -197.58)"/><path class="cls-2" d="M251.06,282.56c2.16.35,4.21-1.48,4.58-4.08s-1.08-5-3.23-5.34-4.21,1.48-4.58,4.08S248.9,282.22,251.06,282.56Z" transform="translate(-89.3 -197.58)"/><path class="cls-2" d="M254.86,286.56a4.07,4.07,0,0,0,6,.43,4.69,4.69,0,0,0,1.15-6.23,4.07,4.07,0,0,0-6-.43A4.69,4.69,0,0,0,254.86,286.56Z" transform="translate(-89.3 -197.58)"/><path class="cls-2" d="M240.45,285.39c-5.4,2.82-4.19,6.93-2.18,9.15s5.8,1.45,5.8,1.45.48,1.2,3,3.51a5.28,5.28,0,0,0,8.13-1.54c1.37-2.91-.81-9.24-2.18-12.14S245.84,282.57,240.45,285.39Z" transform="translate(-89.3 -197.58)"/><path class="cls-2" d="M229.67,235.24c1.83,0,3.32-1.88,3.32-4.2s-1.49-4.19-3.32-4.19-3.32,1.88-3.32,4.19S227.83,235.24,229.67,235.24Z" transform="translate(-89.3 -197.58)"/><path class="cls-2" d="M251.43,243.5a3.54,3.54,0,0,0-5-1.31,4,4,0,0,0-2,5.05,3.53,3.53,0,0,0,5,1.3A4,4,0,0,0,251.43,243.5Z" transform="translate(-89.3 -197.58)"/><path class="cls-2" d="M239.07,235.29c2.15.34,4.18-1.48,4.55-4.09s-1.07-5-3.21-5.34-4.18,1.48-4.55,4.09S236.93,234.94,239.07,235.29Z" transform="translate(-89.3 -197.58)"/><path class="cls-2" d="M242.85,239.28a4,4,0,0,0,5.93.43,4.71,4.71,0,0,0,1.15-6.23,4,4,0,0,0-5.93-.42A4.69,4.69,0,0,0,242.85,239.28Z" transform="translate(-89.3 -197.58)"/><path class="cls-2" d="M228.51,238.11c-5.36,2.82-4.16,6.93-2.16,9.15s5.77,1.46,5.77,1.46.48,1.19,3,3.5a5.24,5.24,0,0,0,8.09-1.54c1.36-2.9-.8-9.23-2.17-12.14S233.88,235.29,228.51,238.11Z" transform="translate(-89.3 -197.58)"/></svg>